#!OML:ASF G:\acrobat\cartwheel_test\acrobat_wednesday\Session 1\acrobatwednesday.ASF
:FULLY-SPECIFIED
:DEGREES
464
root 2.49693 16.9927 -9.87307 -349.26 22.59 -3.39578
lowerback 9.15871 -1.3703 -2.46908
upperback 2.63798 -1.99175 1.03983
thorax -2.27162 -0.981082 2.68019
lowerneck -25.4022 4.93956 -2.9715
upperneck 7.77081 7.48185 0.492559
head 6.23383 3.57332 1.53177
rclavicle -9.93923e-016 -2.06736e-014
rhumerus -57.6637 -22.4647 -42.4132
rradius 26.2903
rwrist 33.6692
rhand -30.1612 369.861
rfingers 7.12502
rthumb -3.47317 -380.09
lclavicle -9.93923e-016 -2.06736e-014
lhumerus -29.1151 -4.1382 86.9832
lradius 39.7105
lwrist 21.1367
lhand -32.1821 -741.78
lfingers 7.12502
lthumb -5.42452 8.13082
rfemur 2.7122 -349.756 14.418
rtibia 6.14803
rfoot -31.7016 7.66321
rtoes 11.4852
lfemur -15.659 -6.40107 -0.640124
ltibia -2.08971
lfoot 140.208 170.341
ltoes 61.3254
465
root 2.53665 16.967 -9.80775 -349.819 21.0399 -3.45201
lowerback 8.65249 -1.29529 -1.98474
upperback 2.68795 -1.84059 1.09771
thorax -1.96418 -0.912518 2.43523
lowerneck -25.213 5.36425 -2.29874
upperneck 8.03563 7.84147 0.394397
head 6.31441 3.75411 1.44118
rclavicle 6.61953e-014 -8.34896e-015
rhumerus -58.1131 -23.4619 -42.7551
rradius 26.076
rwrist 35.6042
rhand -29.2761 369.954
rfingers 7.12502
rthumb -2.61835 -380.01
lclavicle 6.61953e-014 -8.34896e-015
lhumerus -28.9519 -7.70425 89.3717
lradius 40.4187
lwrist 21.0402
lhand -28.2066 -739.131
lfingers 7.12502
lthumb -1.58543 10.8424
rfemur 3.16225 -349.194 14.4583
rtibia 6.39987
rfoot -31.5553 7.84177
rtoes 11.7473
lfemur -16.9145 -0.117012 -2.66866
ltibia 1.10242
lfoot 147.988 168.388
ltoes 61.9968
466
root 2.60313 16.9363 -9.73104 -350.73 19.1712 -3.42157
lowerback 8.3171 -1.15203 -1.51879
upperback 2.84072 -1.61024 1.03779
thorax -1.64935 -0.802957 2.07697
lowerneck -25.1451 5.87421 -1.28023
upperneck 8.57616 8.23998 0.115881
head 6.52847 3.94256 1.25616
rclavicle -1.61016e-014 5.56597e-015
rhumerus -58.1989 -24.0026 -43.4283
rradius 25.9553
rwrist 37.5713
rhand -27.9388 370.63
rfingers 7.12502
rthumb -1.32677 -379.345
lclavicle -1.61016e-014 5.56597e-015
lhumerus -28.975 -11.5226 91.5576
lradius 41.1618
lwrist 21.0724
lhand -27.5005 -738.989
lfingers 7.12502
lthumb -0.903438 10.9885
rfemur 4.03253 -349.036 14.166
rtibia 6.59217
rfoot -30.7004 6.7465
rtoes 12.2361
lfemur -17.4505 3.91979 -4.47025
ltibia 4.11977
lfoot 154.953 168.668
ltoes 62.6573
467
root 2.70238 16.8963 -9.63387 -351.773 16.8734 -3.43681
lowerback 7.71175 -0.997393 -0.987679
upperback 3.08891 -1.3619 1.04343
thorax -1.08335 -0.684969 1.74397
lowerneck -24.7014 6.38799 -0.804698
upperneck 8.88462 8.78558 0.0316082
head 6.58115 4.21016 1.21746
rclavicle 3.57812e-015 -6.75868e-015
rhumerus -57.3745 -23.7044 -44.727
rradius 25.8202
rwrist 38.7104
rhand -27.1135 370.554
rfingers 7.12502
rthumb -0.529669 -379.425
lclavicle 3.57812e-015 -6.75868e-015
lhumerus -29.1177 -15.2014 93.6533
lradius 41.9727
lwrist 21.5311
lhand -26.8361 -739.205
lfingers 7.12502
lthumb -0.261817 10.7742
rfemur 4.97656 -348.834 13.6024
rtibia 6.78836
rfoot -29.6026 4.81067
rtoes 13.1614
lfemur -17.2289 5.78942 -5.77102
ltibia 6.45405
lfoot 158.805 171.623
ltoes 61.0777
468
root 2.79859 16.8611 -9.54542 -352.754 14.7143 -3.63199
lowerback 7.3955 -1.03867 -0.572457
upperback 3.20504 -1.38505 1.33836
thorax -0.790635 -0.698938 1.80786
lowerneck -24.4093 6.987 -0.677683
upperneck 9.42373 9.55394 0.0225919
head 6.7137 4.57425 1.29358
rclavicle 5.1684e-014 -3.85642e-014
rhumerus -55.9357 -23.5986 -45.6896
rradius 25.7392
rwrist 40.3519
rhand -27.1885 369.259
rfingers 7.12502
rthumb -0.602126 -380.72
lclavicle 5.1684e-014 -3.85642e-014
lhumerus -29.2407 -17.7547 95.6376
lradius 42.7015
lwrist 21.2068
lhand -27.9453 -739.582
lfingers 7.12502
lthumb -1.33305 10.3931
rfemur 5.65179 -348.411 13.3271
rtibia 7.15019
rfoot -28.9076 3.86007
rtoes 13.2513
lfemur -17.1971 7.15464 -6.62741
ltibia 8.79516
lfoot 160.859 173.719
ltoes 62.4622
469
root 2.88564 16.831 -9.46087 -353.556 12.7041 -3.78215
lowerback 7.24306 -1.11484 -0.452873
upperback 3.15043 -1.47588 1.66508
thorax -0.753454 -0.746323 2.08162
lowerneck -24.2231 7.606 -0.460153
upperneck 10.2034 10.3083 0.148859
head 6.93974 4.9423 1.41045
rclavicle 1.5207e-014 3.20043e-014
rhumerus -54.5334 -23.4795 -46.7762
rradius 25.9519
rwrist 41.5289
rhand -27.6751 369.157
rfingers 7.12502
rthumb -1.07216 -380.82
lclavicle 1.5207e-014 3.20043e-014
lhumerus -29.3299 -19.3379 97.2598
lradius 43.1727
lwrist 20.0141
lhand -28.561 -740.052
lfingers 7.12502
lthumb -1.92773 9.91862
rfemur 6.03874 -348.193 13.054
rtibia 7.679
rfoot -28.0874 4.15943
rtoes 11.6584
lfemur -17.0083 7.74091 -6.97763
ltibia 11.4944
lfoot 159.525 165.535
ltoes 59.9494
470
root 2.97422 16.8043 -9.3667 -354.245 10.6518 -3.64695
lowerback 6.91962 -1.08554 -0.69473
upperback 3.09728 -1.45337 1.85731
thorax -0.618496 -0.740176 2.40717
lowerneck -24.0979 8.18112 -0.0389528
upperneck 11.0215 10.928 0.364148
head 7.19582 5.26228 1.51606
rclavicle -1.60519e-014 -1.56046e-014
rhumerus -53.276 -22.7251 -48.5122
rradius 26.6101
rwrist 41.0077
rhand -28.0917 370.293
rfingers 7.12502
rthumb -1.47447 -379.682
lclavicle -1.60519e-014 -1.56046e-014
lhumerus -29.474 -21.7425 98.6397
lradius 43.6414
lwrist 19.6605
lhand -27.8859 -740.239
lfingers 7.12502
lthumb -1.27575 9.7367
rfemur 6.34356 -348.071 12.4034
rtibia 8.25696
rfoot -27.2015 4.12116
rtoes 10.5701
lfemur -16.1395 8.69877 -7.33275
ltibia 13.1808
lfoot 161.445 161.893
ltoes 59.6949
471
root 3.07303 16.7884 -9.26266 -355.007 8.55327 -3.28276
lowerback 6.55509 -1.01724 -1.11213
upperback 3.13618 -1.38984 1.96686
thorax -0.365911 -0.716842 2.74173
lowerneck -23.8289 8.67633 0.203319
upperneck 11.8964 11.5253 0.450377
head 7.44935 5.55153 1.60263
rclavicle 1.59525e-014 -8.64713e-015
rhumerus -52.1783 -22.1395 -50.1537
rradius 27.6431
rwrist 40.076
rhand -28.1091 370.048
rfingers 7.12502
rthumb -1.49133 -379.927
lclavicle 1.59525e-014 -8.64713e-015
lhumerus -29.6524 -24.6847 99.7756
lradius 44.3362
lwrist 20.2235
lhand -27.0308 -740.013
lfingers 7.12502
lthumb -0.449817 9.96652
rfemur 6.71921 -348.034 11.4202
rtibia 8.85083
rfoot -26.6668 3.57013
rtoes 10.048
lfemur -14.1525 9.4675 -7.63538
ltibia 13.4061
lfoot 163.929 159.69
ltoes 58.887
472
root 3.17551 16.7912 -9.1499 -355.871 6.57352 -2.95766
lowerback 6.25101 -0.936902 -1.35181
upperback 3.22428 -1.29865 1.96567
thorax -0.105852 -0.678413 2.86187
lowerneck -23.5202 9.10536 0.550787
upperneck 12.5429 11.9981 0.538233
head 7.62859 5.79186 1.65063
rclavicle -9.07887e-015 5.92006e-015
rhumerus -51.3558 -21.8594 -52.0424
rradius 29.061
rwrist 38.0335
rhand -28.1734 368.715
rfingers 7.12502
rthumb -1.55334 -381.26
lclavicle -9.07887e-015 5.92006e-015
lhumerus -29.6266 -26.3047 100.355
lradius 45.0049
lwrist 19.9986
lhand -25.8956 -739.523
lfingers 7.12502
lthumb 0.646589 10.4554
rfemur 7.14329 -347.933 10.5047
rtibia 9.52904
rfoot -26.4256 2.28862
rtoes 10.7597
lfemur -11.6122 10.4582 -7.69421
ltibia 12.8661
lfoot 166.025 158.382
ltoes 57.762
473
root 3.27126 16.8098 -9.04756 -356.422 5.20574 -2.68024
lowerback 5.95682 -1.04002 -1.56227
upperback 3.1156 -1.44591 2.03346
thorax -0.0381752 -0.755524 3.05376
lowerneck -23.1046 9.44629 0.877728
upperneck 13.0212 12.4004 0.40672
head 7.75044 5.97936 1.61186
rclavicle 1.11444e-014 5.96354e-016
rhumerus -50.6158 -20.8223 -54.6592
rradius 30.859
rwrist 33.8189
rhand -28.8829 366.726
rfingers 7.12502
rthumb -2.23862 -383.242
lclavicle 1.11444e-014 5.96354e-016
lhumerus -29.3738 -26.4717 100.625
lradius 45.2761
lwrist 19.0682
lhand -24.6276 -739.347
lfingers 7.12502
lthumb 1.87123 10.6248
rfemur 7.19879 -347.842 9.68118
rtibia 10.3653
rfoot -26.4497 -0.608633
rtoes 14.7594
lfemur -9.88888 11.6155 -7.71787
ltibia 12.6677
lfoot 168.109 158.003
ltoes 56.6311
474
root 3.36135 16.8378 -8.96954 -356.53 4.7027 -2.35866
lowerback 5.67131 -1.42355 -1.87959
upperback 2.7931 -1.9677 2.24711
thorax -0.158438 -1.01684 3.47915
lowerneck -22.7838 9.63236 0.584756
upperneck 13.4664 12.7293 0.587613
head 7.81538 6.13496 1.75522
rclavicle -2.17918e-014 -2.38542e-015
rhumerus -49.9149 -19.4908 -57.2101
rradius 32.6185
rwrist 29.5004
rhand -30.0348 364.819
rfingers 7.12502
rthumb -3.35102 -385.134
lclavicle -2.17918e-014 -2.38542e-015
lhumerus -29.0064 -26.6111 100.819
lradius 45.2361
lwrist 18.7193
lhand -23.7441 -739.832
lfingers 7.12502
lthumb 2.72453 10.1305
rfemur 6.84115 -348.086 8.8237
rtibia 11.296
rfoot -26.7654 -3.62566
rtoes 18.1881
lfemur -9.33548 12.4944 -8.10059
ltibia 12.9817
lfoot 170.463 157.766
ltoes 55.3646
